<svg xmlns="http://www.w3.org/2000/svg" width="512px" height="512px" viewBox="0 0 512 512" data-bbox="53.25449306550155 68 402.45185051713975 362.47366002029025" style="overflow: visible;">
	<rect data-uid="o-8e173855f8314482beaf8c4a95f8b740" data-fl-background="" x="0" y="0" width="512" height="512" fill="#000000"></rect>
	<g transform="matrix(0.56929612159729, 0, 0, 0.56929612159729, 85.29010009765625, -44.418914794921875)" fill="#fec934" data-uid="o-ac875edac86a4acaa77cec42dfa6cc73">
		<svg version="1.1" id="Calque_1"
			xmlns="http://www.w3.org/2000/svg" x="0px" y="0px" viewBox="0 0 595.28 841.89" enable-background="new 0 0 595.28 841.89" width="595.28" height="841.89" data-uid="o-7ad481ad14c2417a91ae44f2f64d57de">
			<g data-uid="o-f88311c0fc364b989125b979f6b50a36">
				<g data-uid="o-d6500569987043319299984cb6fb35b6">
					<g data-uid="o-d0ef062bccbb4220b557d173a3207c0c">
						<g data-uid="o-e2971ce011424281bd81b752951b7eb4">
							<path class="st0" d="M499.77 371.71c-19.81 0-36.88 11.71-44.69 28.58h-62.56v41.32h62.56c7.81 16.87 24.88 28.57 44.69 28.57
					c27.2 0 49.23-22.04 49.23-49.24C549 393.75 526.96 371.71 499.77 371.71z M454.44 430c-5 0-9.05-4.05-9.05-9.05
					c0-5 4.05-9.05 9.05-9.05c5 0 9.05 4.05 9.05 9.05C463.49 425.94 459.44 430 454.44 430z M522.76 434.35l-22.65 13.41
					l-22.65-13.41v-26.82l22.65-13.41l22.65 13.41V434.35z" fill="#fec934" data-uid="o-373f4cf03dc24bcfa7a8a5520a189aba"></path>
						</g>
						<g data-uid="o-09594bb49543447dad0c6196145e7e25">
							<path class="st0" d="M188.14 400.28h-53.27c-7.81-16.87-24.87-28.58-44.69-28.58c-19.42 0-36.16 11.27-44.18 27.61h36.44
					l17.14 23.32l-17.14 23.32H47.82c8.57 14.48 24.31 24.23 42.36 24.23c19.82 0 36.88-11.71 44.69-28.57h53.27V400.28z
					 M139.41 430c-5 0-9.05-4.05-9.05-9.05c0-5 4.05-9.05 9.05-9.05s9.05 4.05 9.05 9.05C148.46 425.94 144.41 430 139.41 430z" fill="#fec934" data-uid="o-bffa1430565c4216af5924cce53260c2"></path>
						</g>
					</g>
				</g>
				<g data-uid="o-7834c8f78c8941149c96cebda21360b6">
					<g data-uid="o-76e07c2983714b6b9e17d375eed4fd0e">
						<path class="st0" d="M433.79 380.24c-2.43 0-4.69-1.53-5.51-3.94c-19.11-56.2-71.85-93.95-131.25-93.95
				c-58.27 0-110.69 36.82-130.43 91.64c-1.05 2.91-4.21 4.54-7.18 3.61c-2.96-0.9-4.71-3.95-3.96-6.96l0.01-0.03
				c21.58-59.97 78.39-99.89 141.55-99.89c64.38 0 121.55 40.93 142.27 101.84c1.03 3.05-0.59 6.35-3.64 7.39
				C435.04 380.14 434.41 380.24 433.79 380.24z" fill="#fec934" data-uid="o-2fd69de8646e46d1adfd996aba325308"></path>
					</g>
					<g data-uid="o-3db89cc12ac44cc48b48d1b7c6b10c77">
						<path class="st0" d="M297.04 571.29c-63.16 0-119.98-39.92-141.38-99.32l5.46-2.01l5.65-1.41l0.01 0.03
				c19.58 54.24 71.99 91.07 130.26 91.07c59.39 0 112.14-37.76 131.25-93.95c1.04-3.04 4.32-4.68 7.38-3.64
				c3.04 1.04 4.67 4.34 3.64 7.39C418.59 530.36 361.42 571.29 297.04 571.29z" fill="#fec934" data-uid="o-7228cc1d86c548e2a683e9f8eb11f2ff"></path>
					</g>
				</g>
				<g data-uid="o-63a2f38e945547059cf7cb65c3967ea0">
					<g data-uid="o-e23dfe0e2a304417baf72352e0be357f">
						<path class="st1" d="M499.5 342.16c-2.01 0-3.97-1.04-5.04-2.91l-23.88-41.35l-30.55 17.64c-2.5 1.45-5.68 0.84-7.48-1.43
				c-7.93-10.03-16.97-19.2-26.88-27.24c-2.22-1.81-2.8-4.95-1.37-7.43l17.81-30.86L385.8 227.6l-17.62 30.52
				c-1.45 2.51-4.53 3.56-7.2 2.49c-11.9-4.75-24.31-8.17-36.89-10.15c-2.83-0.45-4.92-2.88-4.92-5.75v-35.59h-41.94v35.27
				c0 2.89-2.13 5.35-4.99 5.76c-12.65 1.81-25.1 5.06-37.02 9.64c-2.68 0.99-5.7-0.05-7.13-2.53l-17.8-30.83l-36.31 20.97
				l17.63 30.55c1.45 2.5 0.84 5.68-1.43 7.47c-10.05 7.94-19.21 16.98-27.23 26.88c-1.8 2.22-4.94 2.81-7.43 1.37l-30.86-17.82
				l-23.88 41.35c-1.61 2.78-5.17 3.76-7.95 2.13c-2.79-1.6-3.74-5.17-2.13-7.95L117.5 285c0.77-1.34 2.04-2.32 3.53-2.71
				c1.49-0.38 3.07-0.19 4.42 0.59l31.66 18.28c6.68-7.8 14.04-15.07 21.96-21.68L161 248.18c-1.61-2.78-0.65-6.35 2.13-7.95
				l46.39-26.79c1.33-0.78 2.93-0.97 4.42-0.59c1.49 0.4 2.76 1.37 3.53 2.71l18.26 31.63c9.71-3.43 19.72-6.03 29.87-7.78v-36.12
				c0-3.21 2.6-5.82 5.82-5.82H325c3.21 0 5.82 2.6 5.82 5.82v36.51c10.11 1.87 20.09 4.61 29.77 8.19l18.05-31.26
				c0.77-1.34 2.04-2.32 3.53-2.71c1.5-0.37 3.08-0.2 4.42 0.59l46.4 26.79c2.78 1.6 3.74 5.17 2.13 7.95l-18.27 31.66
				c7.81 6.69 15.07 14.06 21.67 21.96l31.29-18.06c2.78-1.62 6.34-0.65 7.95 2.13l26.79 46.39c1.61 2.78 0.66 6.34-2.13 7.95
				C501.49 341.91 500.49 342.16 499.5 342.16z" fill="#fec934" data-uid="o-58c665f8030048d68bf975c5d7856f28"></path>
					</g>
					<g data-uid="o-efe02b5f2aae4fd29e8bf1fd0de3bba6">
						<path class="st1" d="M325 644.51h-53.58c-3.21 0-5.82-2.6-5.82-5.82v-36.12c-10.15-1.75-20.16-4.35-29.87-7.78l-18.26 31.63
				c-0.77 1.34-2.04 2.32-3.53 2.71c-1.49 0.38-3.08 0.19-4.42-0.59l-46.39-26.79c-2.78-1.6-3.74-5.17-2.13-7.95l18.07-31.29
				c-7.91-6.61-15.27-13.88-21.96-21.68l-31.66 18.28c-1.34 0.78-2.93 0.97-4.42 0.59c-1.49-0.4-2.76-1.37-3.53-2.71l-26.79-46.39
				c-1.61-2.78-0.66-6.35 2.13-7.95c2.78-1.63 6.34-0.65 7.95 2.13l23.88 41.35l30.86-17.82c2.49-1.43 5.63-0.86 7.43 1.37
				c8.02 9.9 17.19 18.94 27.23 26.88c2.26 1.79 2.88 4.97 1.43 7.47l-17.63 30.55l36.31 20.97l17.8-30.83
				c1.43-2.49 4.45-3.54 7.13-2.53c11.92 4.58 24.37 7.82 37.02 9.64c2.87 0.41 4.99 2.87 4.99 5.76v35.27h41.94v-35.59
				c0-2.87 2.08-5.3 4.92-5.75c12.58-1.98 25-5.39 36.89-10.15c2.67-1.06 5.75-0.02 7.2 2.49l17.62 30.52l36.32-20.97l-17.81-30.86
				c-1.43-2.48-0.85-5.62 1.37-7.43c9.91-8.04 18.95-17.2 26.88-27.24c1.8-2.27 4.98-2.88 7.48-1.43l30.55 17.64l23.88-41.35
				c1.6-2.78 5.17-3.75 7.95-2.13c2.79 1.6 3.74 5.17 2.13 7.95l-26.79 46.39c-1.61 2.78-5.17 3.75-7.95 2.13l-31.29-18.06
				c-6.6 7.91-13.86 15.27-21.67 21.96l18.27 31.66c1.61 2.78 0.65 6.35-2.13 7.95l-46.4 26.79c-1.33 0.77-2.92 0.97-4.42 0.59
				c-1.49-0.4-2.76-1.37-3.53-2.71L360.59 594c-9.69 3.57-19.66 6.31-29.77 8.19v36.51C330.82 641.91 328.21 644.51 325 644.51z" fill="#fec934" data-uid="o-04ef5dd28b434ebeb5ed0f7235a62abf"></path>
					</g>
				</g>
				<g data-uid="o-661c5526d66f463f9af5c8339e27b659">
					<g data-uid="o-5aab0b5f14bb479b9b5eaaf8e08ba90a">
						<g data-uid="o-847d35e8e5754474948b5c3f71c83962">
							<path class="st1" d="M343.82 455.55c0 10.1 8.22 18.32 18.32 18.32c10.1 0 18.32-8.22 18.32-18.32v-88.61
					c0-0.4 0.01-0.91 0.03-1.48c0.09-3.52 0.28-10.85-3.23-14.45c-1.63-1.68-4.09-2.49-7.51-2.49c-5.58 0-9.85 1.55-13.98 3.05
					c-6.7 2.43-15.04 5.47-23.83-3.58c-8.17-8.42-18.36-7.22-24.37-2.55c-10.02 7.79-18.6 8.87-35.33 4.43
					c-9.71-2.58-14.12 1.23-20.78 7c-1.42 1.23-2.86 2.47-4.38 3.67c-8.19 6.5-14.11 3.59-18.87 1.26
					c-2.92-1.43-5.93-2.91-10.7-3.43c-4.68-0.5-9.25 0.98-12.84 4.2c-3.49 3.13-5.66 7.6-5.66 11.66v74.06
					c0 10.1 8.22 18.32 18.32 18.32c10.1 0 18.32-8.22 18.32-18.32v-46.29c0-3.21 2.61-5.82 5.82-5.82c3.21 0 5.82 2.61 5.82 5.82
					v46.29v4.59v2.68c0 10.1 8.22 18.32 18.32 18.32c10.1 0 18.32-8.22 18.32-18.32c0-0.12 0.03-0.22 0.03-0.34v-53.22
					c0-3.21 2.61-5.82 5.82-5.82c3.21 0 5.82 2.61 5.82 5.82v54.23c0.36 9.79 8.41 17.64 18.28 17.64c9.72 0 17.67-7.62 18.26-17.19
					v-54.68c0-3.21 2.61-5.82 5.82-5.82c3.21 0 5.82 2.61 5.82 5.82v53C343.78 455.18 343.82 455.36 343.82 455.55z" fill="#fec934" data-uid="o-6d71e7c3ad25419395214ac7780e1225"></path>
						</g>
						<g data-uid="o-96f5e7b69e9b49b2a4dee405564b9e22">
							<path class="st1" d="M391.77 459.7c-2.03 14.56-14.53 25.81-29.64 25.81c-9.89 0-18.68-4.82-24.14-12.23
					c-5.46 7.41-14.24 12.23-24.14 12.23c-6.36 0-12.26-2.01-17.11-5.41v4.24c0 11.91 9.66 21.57 21.57 21.57h62.08
					c11.97 0 21.68-9.71 21.68-21.68V459.7H391.77z" fill="#fec934" data-uid="o-238a834ea46249368d0e7e30409fa12f"></path>
						</g>
					</g>
					<g data-uid="o-52aea94b29eb45dcb6fcd814e3591a17">
						<g data-uid="o-1ced6f333ebf4218b429ab23c4cdd377">
							<path class="st1" fill="#fec934" data-type="circle" data-cx="297.45" data-cy="233.88" data-r="6.28" d="M297.45 233.88m-6.28 0a6.28 6.28 0 1 0 12.56 0a6.28 6.28 0 1 0 -12.56 0" data-uid="o-86dbecc06140490db48997eaadd83833"></path>
						</g>
						<g data-uid="o-919f53514e5d433c98e2ff780b3175ff">
							<path class="st1" fill="#fec934" data-type="circle" data-cx="389.58" data-cy="263.54" data-r="6.28" d="M389.58 263.54m-6.28 0a6.28 6.28 0 1 0 12.56 0a6.28 6.28 0 1 0 -12.56 0" data-uid="o-490877a47d764351a2babdb65b08b96d"></path>
						</g>
						<g data-uid="o-5b0f661d42f34bc1bd2687d90abab952">
							<path class="st1" fill="#fec934" data-type="circle" data-cx="207.76" data-cy="263.54" data-r="6.28" d="M207.76 263.54m-6.28 0a6.28 6.28 0 1 0 12.56 0a6.28 6.28 0 1 0 -12.56 0" data-uid="o-46c69e6cc4dd4a3fbe155d38f3a85a57"></path>
						</g>
						<g data-uid="o-7ad2d7606cfa48c8ac1185200d79e0d5">
							<path class="st1" fill="#fec934" data-type="circle" data-cx="136.1" data-cy="337.58" data-r="6.28" d="M136.1 337.58m-6.28 0a6.28 6.28 0 1 0 12.56 0a6.28 6.28 0 1 0 -12.56 0" data-uid="o-09ba80d03abe4ab2a42b04007656b8ba"></path>
						</g>
						<g data-uid="o-6820128ea0f443ad8f6c30a91a80bd63">
							<path class="st1" fill="#fec934" data-type="circle" data-cx="455.01" data-cy="337.58" data-r="6.28" d="M455.01 337.58m-6.28 0a6.28 6.28 0 1 0 12.56 0a6.28 6.28 0 1 0 -12.56 0" data-uid="o-2f56ae0b8d204365b789a32f1d5dde91"></path>
						</g>
					</g>
					<g data-uid="o-09051604a2d74c66a5a03eb6a40313ae">
						<g data-uid="o-4a7e6fd7f13a4c33ac3955bf23b1dff3">
							<path class="st1" fill="#fec934" data-type="circle" data-cx="297.45" data-cy="608.12" data-r="6.28" d="M297.45 608.12m-6.28 0a6.28 6.28 0 1 0 12.56 0a6.28 6.28 0 1 0 -12.56 0" data-uid="o-5f1e0953a1e741b5a649c06192a34d53"></path>
						</g>
						<g data-uid="o-ff2dd2bb6af34f4595368296bbee4873">
							<path class="st1" fill="#fec934" data-type="circle" data-cx="389.58" data-cy="578.46" data-r="6.28" d="M389.58 578.46m-6.28 0a6.28 6.28 0 1 0 12.56 0a6.28 6.28 0 1 0 -12.56 0" data-uid="o-bc65ab82484b4f94afb967c118e61ded"></path>
						</g>
						<g data-uid="o-5368bfacf2be4e09a4aba753ad190b59">
							<path class="st1" fill="#fec934" data-type="circle" data-cx="207.76" data-cy="578.46" data-r="6.28" d="M207.76 578.46m-6.28 0a6.28 6.28 0 1 0 12.56 0a6.28 6.28 0 1 0 -12.56 0" data-uid="o-c5798da034204df49154a9ba94ebdc7e"></path>
						</g>
						<g data-uid="o-cee528a84963483495b1b1bf06bf7aec">
							<path class="st1" fill="#fec934" data-type="circle" data-cx="136.1" data-cy="504.42" data-r="6.28" d="M136.1 504.42m-6.28 0a6.28 6.28 0 1 0 12.56 0a6.28 6.28 0 1 0 -12.56 0" data-uid="o-e94f6ab91d874aefaa49365d614c0af5"></path>
						</g>
						<g data-uid="o-9f0c641978384a43bea66c58c8da01da">
							<path class="st1" fill="#fec934" data-type="circle" data-cx="455.01" data-cy="504.42" data-r="6.28" d="M455.01 504.42m-6.28 0a6.28 6.28 0 1 0 12.56 0a6.28 6.28 0 1 0 -12.56 0" data-uid="o-32ec13c0a6a141509260386844b95cdc"></path>
						</g>
					</g>
				</g>
			</g>
		</svg>
	</g>
	<path text="Versionater" fill="#fec934" space="preserve" text-anchor="middle" offset="0.5" font-scale="contain" font-size="28" font-family="Changa" transform="matrix(2.5039310455322266, 0, 0, 2.5039310455322266, 254.6556854248047, 429.4219970703125)" data-fl-textpath="" font-style="normal" font-weight="400" letter-spacing="2" data-uid="o-a904e6901bce4ec49b117889d238264d" d="M-80.434-17.5L-77.634-17.5L-73.546-2.576L-73.294-2.576L-69.206-17.5L-66.406-17.5L-71.306 0L-75.534 0L-80.434-17.5ZM-56.79-1.932Q-55.642-1.932 -54.55-2.086Q-53.458-2.24 -51.946-2.604L-51.946-2.604L-51.582-0.56Q-52.618-0.168 -54.144 0.056Q-55.67 0.28 -57.294 0.28L-57.294 0.28Q-59.478 0.28 -60.626-0.35Q-61.774-0.98 -62.25-2.52Q-62.726-4.06 -62.726-7L-62.726-7Q-62.726-9.828 -62.18-11.382Q-61.634-12.936 -60.374-13.608Q-59.114-14.28 -56.818-14.28L-56.818-14.28Q-54.55-14.28 -53.36-13.916Q-52.17-13.552 -51.694-12.67Q-51.218-11.788 -51.218-10.08L-51.218-10.08Q-51.218-8.036 -51.806-7.14Q-52.394-6.244 -54.116-5.936Q-55.838-5.628 -59.786-5.628L-59.786-5.628L-59.786-2.24Q-58.666-1.932 -56.79-1.932L-56.79-1.932ZM-57.462-11.984Q-58.806-11.984 -59.296-11.648Q-59.786-11.312 -59.786-10.36L-59.786-10.36L-59.786-7.448L-56.09-7.448Q-54.718-7.448 -54.228-7.784Q-53.738-8.12 -53.738-9.072L-53.738-9.072L-53.738-11.984L-57.462-11.984ZM-43.422-14L-42.442-11.788Q-41.182-12.908 -40.286-13.524Q-39.39-14.14 -38.606-14.42L-38.606-14.42L-38.326-11.676Q-39.25-11.396 -40.244-10.906Q-41.238-10.416 -41.938-9.884L-41.938-9.884L-41.938 0L-44.738 0L-44.738-14L-43.422-14ZM-34.338-10.248Q-34.338-12.404 -33.064-13.412Q-31.79-14.42 -29.046-14.42L-29.046-14.42Q-26.61-14.42 -24.398-13.804L-24.398-13.804L-24.79-11.76Q-25.49-11.956 -26.442-12.082Q-27.394-12.208 -28.206-12.208L-28.206-12.208Q-29.886-12.208 -31.398-11.956L-31.398-11.956L-31.398-8.652Q-28.038-8.176 -26.456-7.686Q-24.874-7.196 -24.286-6.37Q-23.698-5.544 -23.698-3.948L-23.698-3.948Q-23.698-2.352 -24.272-1.4Q-24.846-0.448 -26.134-0.014Q-27.422 0.42 -29.578 0.42L-29.578 0.42Q-31.986 0.42 -34.646-0.392L-34.646-0.392L-34.198-2.632Q-32.042-1.792 -29.606-1.792L-29.606-1.792Q-28.766-1.792 -28.122-1.876Q-27.478-1.96 -26.638-2.184L-26.638-2.184L-26.638-5.488Q-30.25-5.992 -31.79-6.468Q-33.33-6.944 -33.834-7.742Q-34.338-8.54 -34.338-10.248L-34.338-10.248ZM-18.226 0L-18.226 0ZM-17.918-13.804L-15.118-14.224L-15.118 0L-17.918 0L-17.918-13.804ZM-16.49-16.436Q-17.526-16.436 -17.876-16.786Q-18.226-17.136 -18.226-18.116L-18.226-18.116Q-18.226-19.124 -17.862-19.488Q-17.498-19.852 -16.49-19.852L-16.49-19.852Q-15.51-19.852 -15.16-19.488Q-14.81-19.124 -14.81-18.116L-14.81-18.116Q-14.81-17.136 -15.146-16.786Q-15.482-16.436 -16.49-16.436L-16.49-16.436ZM-2.842 0.28Q-5.362 0.28 -6.636-0.322Q-7.91-0.924 -8.414-2.464Q-8.918-4.004 -8.918-7L-8.918-7Q-8.918-9.996 -8.414-11.536Q-7.91-13.076 -6.636-13.678Q-5.362-14.28 -2.842-14.28L-2.842-14.28Q-0.294-14.28  0.966-13.678Q 2.226-13.076  2.73-11.55Q 3.234-10.024  3.234-7L 3.234-7Q 3.234-4.004  2.73-2.464Q 2.226-0.924  0.952-0.322Q-0.322 0.28 -2.842 0.28L-2.842 0.28ZM-6.006-2.016L-1.022-2.016Q-0.21-2.016  0.056-2.156Q 0.322-2.296  0.322-2.716L 0.322-2.716L 0.322-11.984L-4.662-11.984Q-5.474-11.984 -5.74-11.844Q-6.006-11.704 -6.006-11.284L-6.006-11.284L-6.006-2.016ZM 9.434 0L 9.434-14L 10.722-14L 11.478-12.6Q 12.542-13.468  13.802-13.874Q 15.062-14.28  16.686-14.28L 16.686-14.28Q 18.646-14.28  19.654-13.678Q 20.662-13.076  20.662-11.9L 20.662-11.9L 20.662 0L 17.862 0L 17.862-11.984L 14.614-11.984Q 13.242-11.984  12.738-11.648Q 12.234-11.312  12.234-10.36L 12.234-10.36L 12.234 0L 9.434 0ZM 32.77-14.28Q 34.702-14.28  35.822-13.902Q 36.942-13.524  37.432-12.67Q 37.922-11.816  37.922-10.36L 37.922-10.36L 37.922 0L 36.634 0L 35.878-1.4Q 34.87-0.532  33.652-0.126Q 32.434 0.28  30.866 0.28L 30.866 0.28Q 28.542 0.28  27.562-0.686Q 26.582-1.652  26.582-3.92L 26.582-3.92Q 26.582-5.964  27.142-6.86Q 27.702-7.756  29.34-8.064Q 30.978-8.372  34.702-8.372L 34.702-8.372L 35.122-8.372L 35.122-11.76Q 34.086-12.068  32.294-12.068L 32.294-12.068Q 30.054-12.068  27.562-11.396L 27.562-11.396L 27.198-13.44Q 28.234-13.804  29.774-14.042Q 31.314-14.28  32.77-14.28L 32.77-14.28ZM 32.882-1.876Q 34.198-1.876  34.66-2.212Q 35.122-2.548  35.122-3.5L 35.122-3.5L 35.122-6.552L 31.398-6.552Q 30.082-6.552  29.606-6.216Q 29.13-5.88  29.13-4.928L 29.13-4.928L 29.13-1.876L 32.882-1.876ZM 50.954-12.068L 48.462-12.068L 48.462-2.072Q 49.47-1.96  50.45-1.932L 50.45-1.932L 50.282-0.028Q 48.714 0.28  47.734 0.28L 47.734 0.28Q 46.67 0.28  46.166-0.238Q 45.662-0.756  45.662-1.82L 45.662-1.82L 45.662-12.068L 43.702-12.068L 43.702-14L 45.662-14L 45.662-16.996L 48.462-17.696L 48.462-14L 50.954-14L 50.954-12.068ZM 61.83-1.932Q 62.978-1.932  64.07-2.086Q 65.162-2.24  66.674-2.604L 66.674-2.604L 67.038-0.56Q 66.002-0.168  64.476 0.056Q 62.95 0.28  61.326 0.28L 61.326 0.28Q 59.142 0.28  57.994-0.35Q 56.846-0.98  56.37-2.52Q 55.894-4.06  55.894-7L 55.894-7Q 55.894-9.828  56.44-11.382Q 56.986-12.936  58.246-13.608Q 59.506-14.28  61.802-14.28L 61.802-14.28Q 64.07-14.28  65.26-13.916Q 66.45-13.552  66.926-12.67Q 67.402-11.788  67.402-10.08L 67.402-10.08Q 67.402-8.036  66.814-7.14Q 66.226-6.244  64.504-5.936Q 62.782-5.628  58.834-5.628L 58.834-5.628L 58.834-2.24Q 59.954-1.932  61.83-1.932L 61.83-1.932ZM 61.158-11.984Q 59.814-11.984  59.324-11.648Q 58.834-11.312  58.834-10.36L 58.834-10.36L 58.834-7.448L 62.53-7.448Q 63.902-7.448  64.392-7.784Q 64.882-8.12  64.882-9.072L 64.882-9.072L 64.882-11.984L 61.158-11.984ZM 75.198-14L 76.178-11.788Q 77.438-12.908  78.334-13.524Q 79.23-14.14  80.014-14.42L 80.014-14.42L 80.294-11.676Q 79.37-11.396  78.376-10.906Q 77.382-10.416  76.682-9.884L 76.682-9.884L 76.682 0L 73.882 0L 73.882-14L 75.198-14Z"></path>
</svg>